<svg xmlns="http://www.w3.org/2000/svg" xmlns:xlink="http://www.w3.org/1999/xlink" width="500" zoomAndPan="magnify" viewBox="0 0 375 374.999991" height="500" preserveAspectRatio="xMidYMid meet" version="1.0"><defs><clipPath id="cac455525e"><path d="M 47.8125 0 L 327.5625 0 L 327.5625 375 L 47.8125 375 Z M 47.8125 0 " clip-rule="nonzero"/></clipPath></defs><g clip-path="url(#cac455525e)"><path fill="#029bda" d="M 71.953125 218.140625 L 71.953125 158.476562 L 123.425781 131.496094 L 123.425781 104.347656 L 54.394531 140.347656 L 47.832031 143.753906 L 47.832031 257.121094 L 65.304688 248.355469 L 170.640625 195.5 L 177.375 192.179688 L 177.375 103.238281 L 303.507812 39.234375 L 303.421875 98.898438 L 227.914062 138.304688 L 221.351562 141.710938 L 221.351562 333.210938 L 177.289062 307.847656 L 177.289062 221.96875 L 153.171875 234.652344 L 153.171875 321.71875 L 159.222656 325.210938 L 227.402344 364.53125 L 245.554688 375 L 245.554688 156.265625 L 321.066406 116.859375 L 327.542969 113.453125 L 327.542969 0 L 310.070312 8.851562 L 159.820312 85.109375 L 153.171875 88.515625 L 153.171875 177.371094 Z M 71.953125 218.140625 " fill-opacity="1" fill-rule="evenodd"/></g></svg>